# xmcd
#
# Track frame offsets: 
#        150
#        15985
#        56225
#        98867
#        123490
#        156590
#        180197
#
# Disc length: 2770 seconds
#
# Revision: 3
# Processed by: cddbd v1.5.2PL0 Copyright (c) Steve Scherf et al.
# Submitted via: ExactAudioCopyFreeDBPlugin 1.0
#
DISCID=530ad007
DTITLE=Big Mama Thornton - Big Mama Thornton:  The Complete Vanguard R
DTITLE=ecordings
DYEAR=2000
DGENRE=Blues
TTITLE0=Good-Bye Baby
TTITLE1=Gonna Leave You
TTITLE2=Mixed Up Feeling
TTITLE3=Special
TTITLE4=Going Fishing
TTITLE5=Big Mama Swings
TTITLE6=Happy Me
EXTD=
EXTT0=
EXTT1=
EXTT2=
EXTT3=
EXTT4=
EXTT5=
EXTT6=
PLAYORDER=
